<svg width="93" height="24" viewBox="0 0 93 24" fill="none" xmlns="http://www.w3.org/2000/svg">
<path d="M12 2L22 8.5V15.5L12 22L2 15.5V8.5L12 2Z" stroke="white" stroke-width="2" stroke-linecap="round" stroke-linejoin="round"/>
<path d="M12 22V15.5" stroke="white" stroke-width="2" stroke-linecap="round" stroke-linejoin="round"/>
<path d="M22 8.5L12 15.5L2 8.5" stroke="#D82CE7" stroke-width="2" stroke-linecap="round" stroke-linejoin="round"/>
<path d="M2 15.5L12 8.5L22 15.5" stroke="#243BB5" stroke-width="2" stroke-linecap="round" stroke-linejoin="round"/>
<path d="M12 2V8.5" stroke="white" stroke-width="2" stroke-linecap="round" stroke-linejoin="round"/>
<path d="M27.888 15V6.48H29.544V13.548H33.888V15H27.888ZM34.8958 15V6.48H36.5518V15H34.8958ZM39.2054 6.48L41.5094 13.032L43.7894 6.48H45.5294L42.3014 15H40.7054L37.4654 6.48H39.2054ZM51.2687 8.712C51.2127 8.656 51.1087 8.58 50.9567 8.484C50.8127 8.388 50.6327 8.296 50.4167 8.208C50.2087 8.12 49.9807 8.044 49.7327 7.98C49.4847 7.908 49.2327 7.872 48.9767 7.872C48.5287 7.872 48.1887 7.956 47.9567 8.124C47.7327 8.292 47.6207 8.528 47.6207 8.832C47.6207 9.064 47.6927 9.248 47.8367 9.384C47.9807 9.52 48.1967 9.636 48.4847 9.732C48.7727 9.828 49.1327 9.932 49.5647 10.044C50.1247 10.18 50.6087 10.348 51.0167 10.548C51.4327 10.74 51.7487 10.996 51.9647 11.316C52.1887 11.628 52.3007 12.044 52.3007 12.564C52.3007 13.02 52.2167 13.412 52.0487 13.74C51.8807 14.06 51.6487 14.32 51.3527 14.52C51.0567 14.72 50.7207 14.868 50.3447 14.964C49.9687 15.052 49.5687 15.096 49.1447 15.096C48.7207 15.096 48.2967 15.052 47.8727 14.964C47.4487 14.876 47.0407 14.752 46.6487 14.592C46.2567 14.424 45.8967 14.224 45.5687 13.992L46.3007 12.564C46.3727 12.636 46.5007 12.732 46.6847 12.852C46.8687 12.964 47.0927 13.08 47.3567 13.2C47.6207 13.312 47.9087 13.408 48.2207 13.488C48.5327 13.568 48.8487 13.608 49.1687 13.608C49.6167 13.608 49.9567 13.532 50.1887 13.38C50.4207 13.228 50.5367 13.012 50.5367 12.732C50.5367 12.476 50.4447 12.276 50.2607 12.132C50.0767 11.988 49.8207 11.864 49.4927 11.76C49.1647 11.648 48.7767 11.528 48.3287 11.4C47.7927 11.248 47.3447 11.08 46.9847 10.896C46.6247 10.704 46.3567 10.464 46.1807 10.176C46.0047 9.888 45.9167 9.528 45.9167 9.096C45.9167 8.512 46.0527 8.024 46.3247 7.632C46.6047 7.232 46.9807 6.932 47.4527 6.732C47.9247 6.524 48.4487 6.42 49.0247 6.42C49.4247 6.42 49.8007 6.464 50.1527 6.552C50.5127 6.64 50.8487 6.756 51.1607 6.9C51.4727 7.044 51.7527 7.2 52.0007 7.368L51.2687 8.712ZM59.9241 7.932H57.2001V15H55.5561V7.932H52.8321V6.48H59.9241V7.932ZM60.9818 15V6.48H64.7498C65.1418 6.48 65.5018 6.56 65.8298 6.72C66.1658 6.88 66.4538 7.096 66.6938 7.368C66.9418 7.64 67.1298 7.944 67.2578 8.28C67.3938 8.616 67.4618 8.96 67.4618 9.312C67.4618 9.672 67.3978 10.02 67.2698 10.356C67.1498 10.684 66.9738 10.972 66.7418 11.22C66.5098 11.468 66.2378 11.66 65.9258 11.796L67.8698 15H66.0458L64.2938 12.144H62.6378V15H60.9818ZM62.6378 10.692H64.7138C64.9218 10.692 65.1058 10.632 65.2658 10.512C65.4258 10.384 65.5538 10.216 65.6498 10.008C65.7458 9.8 65.7938 9.568 65.7938 9.312C65.7938 9.04 65.7378 8.804 65.6258 8.604C65.5138 8.396 65.3698 8.232 65.1938 8.112C65.0258 7.992 64.8418 7.932 64.6418 7.932H62.6378V10.692ZM72.5391 15.06C71.8591 15.06 71.2791 14.948 70.7991 14.724C70.3271 14.492 69.9431 14.176 69.6471 13.776C69.3591 13.376 69.1471 12.924 69.0111 12.42C68.8751 11.908 68.8071 11.376 68.8071 10.824V6.48H70.4631V10.824C70.4631 11.176 70.4951 11.52 70.5591 11.856C70.6311 12.184 70.7471 12.48 70.9071 12.744C71.0671 13.008 71.2791 13.216 71.5431 13.368C71.8071 13.52 72.1351 13.596 72.5271 13.596C72.9271 13.596 73.2591 13.52 73.5231 13.368C73.7951 13.208 74.0071 12.996 74.1591 12.732C74.3191 12.468 74.4351 12.172 74.5071 11.844C74.5791 11.508 74.6151 11.168 74.6151 10.824V6.48H76.2591V10.824C76.2591 11.408 76.1871 11.956 76.0431 12.468C75.9071 12.98 75.6871 13.432 75.3831 13.824C75.0871 14.208 74.7031 14.512 74.2311 14.736C73.7591 14.952 73.1951 15.06 72.5391 15.06ZM77.4111 10.68C77.4111 10.16 77.5031 9.652 77.6871 9.156C77.8791 8.652 78.1551 8.196 78.5151 7.788C78.8751 7.372 79.3151 7.044 79.8351 6.804C80.3551 6.556 80.9471 6.432 81.6111 6.432C82.3951 6.432 83.0711 6.604 83.6391 6.948C84.2151 7.292 84.6431 7.74 84.9231 8.292L83.6511 9.168C83.5071 8.848 83.3191 8.596 83.0871 8.412C82.8551 8.22 82.6071 8.088 82.3431 8.016C82.0791 7.936 81.8191 7.896 81.5631 7.896C81.1471 7.896 80.7831 7.98 80.4711 8.148C80.1671 8.316 79.9111 8.536 79.7031 8.808C79.4951 9.08 79.3391 9.384 79.2351 9.72C79.1391 10.056 79.0911 10.392 79.0911 10.728C79.0911 11.104 79.1511 11.468 79.2711 11.82C79.3911 12.164 79.5591 12.472 79.7751 12.744C79.9991 13.008 80.2631 13.22 80.5671 13.38C80.8791 13.532 81.2191 13.608 81.5871 13.608C81.8511 13.608 82.1191 13.564 82.3911 13.476C82.6631 13.388 82.9151 13.248 83.1471 13.056C83.3791 12.864 83.5591 12.616 83.6871 12.312L85.0431 13.092C84.8751 13.516 84.5991 13.876 84.2151 14.172C83.8391 14.468 83.4151 14.692 82.9431 14.844C82.4711 14.996 82.0031 15.072 81.5391 15.072C80.9311 15.072 80.3751 14.948 79.8711 14.7C79.3671 14.444 78.9311 14.108 78.5631 13.692C78.2031 13.268 77.9191 12.796 77.7111 12.276C77.5111 11.748 77.4111 11.216 77.4111 10.68ZM92.5256 7.932H89.8016V15H88.1576V7.932H85.4336V6.48H92.5256V7.932Z" fill="white"/>
</svg>
